<?xml version="1.0" standalone="no"?>
<!DOCTYPE svg PUBLIC "-//W3C//DTD SVG 20010904//EN"
 "http://www.w3.org/TR/2001/REC-SVG-20010904/DTD/svg10.dtd">
<svg version="1.0" xmlns="http://www.w3.org/2000/svg"
 width="256.000000pt" height="204.000000pt" viewBox="0 0 256.000000 204.000000"
 preserveAspectRatio="xMidYMid meet">

<g transform="translate(0.000000,204.000000) scale(0.100000,-0.100000)"
fill="#000000" stroke="none">
<path d="M1260 1510 c0 -61 26 -116 72 -155 l33 -28 3 39 c2 21 1 53 -3 71 -6
34 -53 96 -86 114 -17 9 -19 5 -19 -41z"/>
<path d="M1190 1297 c0 -23 60 -85 103 -106 45 -22 127 -29 127 -11 0 23 -96
108 -135 119 -54 15 -95 14 -95 -2z"/>
<path d="M1431 1296 c-16 -19 -11 -46 12 -60 25 -16 52 4 52 40 0 24 -5 30
-26 32 -14 2 -31 -4 -38 -12z"/>
<path d="M1544 1204 c-41 -28 -57 -47 -86 -98 l-17 -31 -2 30 c-1 17 -5 -7 -9
-53 -6 -64 -15 -97 -40 -147 -34 -66 -50 -81 -50 -45 0 54 -56 136 -112 166
-37 19 -38 18 -38 -16 0 -63 48 -140 113 -180 l28 -17 -58 -52 c-65 -58 -193
-128 -303 -165 -45 -15 -76 -31 -78 -40 -5 -24 16 -20 114 20 154 62 274 145
345 239 39 52 44 55 75 49 55 -10 128 13 179 58 61 53 59 68 -7 68 -57 0 -127
-27 -167 -63 -23 -21 -24 -21 -16 -2 4 11 10 33 13 48 3 20 14 32 41 43 72 30
140 120 141 187 0 34 -16 35 -66 1z"/>
<path d="M1342 1078 c-34 -34 6 -90 48 -68 35 19 20 80 -20 80 -9 0 -21 -5
-28 -12z"/>
<path d="M1393 824 c-7 -3 -13 -16 -13 -29 0 -44 50 -60 74 -22 20 32 -22 67
-61 51z"/>
<path d="M1228 523 c-2 -5 -1 -37 3 -73 l6 -65 1 73 c2 65 -1 85 -10 65z"/>
<path d="M1107 492 c-25 -28 -22 -69 8 -88 31 -20 53 -15 78 17 17 24 18 30 6
55 -18 36 -66 45 -92 16z m73 -17 c13 -34 -4 -74 -32 -75 -15 0 -38 33 -38 54
0 47 54 64 70 21z"/>
<path d="M1270 500 c0 -5 5 -10 10 -10 6 0 10 5 10 10 0 6 -4 10 -10 10 -5 0
-10 -4 -10 -10z"/>
<path d="M1268 435 c2 -19 8 -35 13 -35 5 0 9 16 9 35 0 22 -5 35 -13 35 -9 0
-12 -11 -9 -35z"/>
<path d="M1317 435 c9 -19 20 -35 23 -35 3 0 14 16 23 35 9 19 13 35 9 35 -5
0 -13 -12 -19 -27 l-10 -28 -8 28 c-4 15 -13 27 -21 27 -11 0 -10 -7 3 -35z"/>
<path d="M1402 458 c-31 -31 -1 -80 36 -58 15 8 14 9 -5 10 -30 0 -39 18 -11
22 26 3 31 31 8 36 -9 1 -21 -3 -28 -10z m28 -8 c0 -5 -7 -10 -16 -10 -8 0
-12 5 -9 10 3 6 10 10 16 10 5 0 9 -4 9 -10z"/>
</g>
</svg>
